<svg id="Layer_1" data-name="Layer 1" xmlns="http://www.w3.org/2000/svg" viewBox="0 0 328.86 72.4"><defs><style>.cls-1{fill:#231f20;}.cls-2{fill:#ed3225;}.cls-3{fill:#6d6f71;}</style></defs><title>Zahid vai</title><path class="cls-1" d="M74.23,23v2.65H70V23Zm0,5.13V39.22H70V28.1Z" transform="translate(0 -0.09)"/><path class="cls-1" d="M75.91,39.25V28.1H74.23V25.62h1.68V23H80v2.65h2V28.1H80V39.25Z" transform="translate(0 -0.09)"/><path class="cls-1" d="M86.21,23v2.65H82V23Zm0,5.13V39.22H82V28.1Z" transform="translate(0 -0.09)"/><path class="cls-2" d="M94.3,27.29a20.54,20.54,0,0,1-9,8.24C76.78,39.7,67.35,38,64.23,31.7S65.47,16.94,74,12.78A21.28,21.28,0,0,1,84.7,10.56l-.8-1.37c-7.07-12.14-18.63-12.14-25.69,0L49,25.1C41.89,37.24,47.67,47.18,61.8,47.18H80.31C93.57,47.18,99.48,38.42,94.3,27.29Z" transform="translate(0 -0.09)"/><path class="cls-2" d="M117.19,19l-1.81,2.18a5,5,0,0,0-3.57-1.77,4.21,4.21,0,0,0,0,8.41,5.35,5.35,0,0,0,3.57-1.6l1.83,2a8.11,8.11,0,0,1-5.56,2.44,7,7,0,1,1,.12-13.9A7.85,7.85,0,0,1,117.19,19Z" transform="translate(0 -0.09)"/><path class="cls-2" d="M125.31,26.54h-3.16v3.9h-3.1V16.78h6c3.59,0,5.63,1.72,5.63,4.74a4.5,4.5,0,0,1-2.57,4.41L131,30.44h-3.51ZM125,24c1.7,0,2.69-.78,2.69-2.34s-1-2.28-2.69-2.28h-2.87V24Z" transform="translate(0 -0.09)"/><path class="cls-2" d="M136.36,19.34v3H143v2.56h-6.64v3h7.58v2.55H133.26V16.78h10.46v2.56Z" transform="translate(0 -0.09)"/><path class="cls-2" d="M149.08,27.79,148,30.44h-3.2l6-13.66H154l5.87,13.66h-3.32l-1.08-2.65Zm3.2-7.79-2.18,5.31h4.34Z" transform="translate(0 -0.09)"/><path class="cls-2" d="M165.76,19.4v11h-3.1v-11h-4.18V16.78H170V19.4Z" transform="translate(0 -0.09)"/><path class="cls-2" d="M171.63,30.44V16.78h3.1V30.44Z" transform="translate(0 -0.09)"/><path class="cls-2" d="M181.66,30.44l-5.4-13.66h3.34l3.75,10.31,3.77-10.31h3.19l-5.45,13.66Z" transform="translate(0 -0.09)"/><path class="cls-2" d="M194.92,19.34v3h6.64v2.56h-6.64v3h7.58v2.55H191.82V16.78h10.47v2.56Z" transform="translate(0 -0.09)"/><path class="cls-1" d="M210.23,30.44V16.78h1.57V30.44Z" transform="translate(0 -0.09)"/><path class="cls-1" d="M220.15,18.28V30.44h-1.58V18.28H214.1v-1.5h10.54v1.5Z" transform="translate(0 -0.09)"/><path class="cls-1" d="M232.29,30.44V16.78h1.57V30.44Z" transform="translate(0 -0.09)"/><path class="cls-1" d="M247.84,30.44l-8.25-11v11H238V16.78h1.63l8.25,11v-11h1.55V30.44Z" transform="translate(0 -0.09)"/><path class="cls-1" d="M262.07,18l-.67,1.47a7.15,7.15,0,0,0-3.79-1.16c-1.76,0-2.92.67-2.92,1.82,0,3.51,7.73,1.68,7.71,6.63,0,2.29-2,3.75-5,3.75a7.88,7.88,0,0,1-5.27-2.09l.71-1.4a6.85,6.85,0,0,0,4.58,1.93c2,0,3.21-.8,3.21-2.11,0-3.59-7.71-1.68-7.71-6.57,0-2.15,1.9-3.54,4.75-3.54A8.19,8.19,0,0,1,262.07,18Z" transform="translate(0 -0.09)"/><path class="cls-1" d="M269.8,18.28V30.44h-1.57V18.28h-4.48v-1.5H274.3v1.5Z" transform="translate(0 -0.09)"/><path class="cls-1" d="M276.57,30.44V16.78h1.57V30.44Z" transform="translate(0 -0.09)"/><path class="cls-1" d="M286.48,18.28V30.44h-1.57V18.28h-4.47v-1.5H291v1.5Z" transform="translate(0 -0.09)"/><path class="cls-1" d="M304.48,24.82c0,3.55-2.16,5.7-5.75,5.7s-5.79-2.15-5.79-5.7v-8h1.57v8a4.2,4.2,0,1,0,8.4,0v-8h1.57Z" transform="translate(0 -0.09)"/><path class="cls-1" d="M312.51,18.28V30.44h-1.57V18.28h-4.48v-1.5H317v1.5Z" transform="translate(0 -0.09)"/><path class="cls-1" d="M320.85,18.28v4.49h6.93v1.51h-6.93V29h8v1.48h-9.58V16.78h9.32v1.5Z" transform="translate(0 -0.09)"/><path class="cls-2" d="M211.18,72.48c-17.32,0-17.89-13.16-24.35-21a12,12,0,0,0-9.27-4.3H107.11a17.43,17.43,0,0,0-10.37,3.61c-4.22,3.14-9.85,4.82-16.43,4.82H61.8c-6.53,0-12.2-1.71-16.44-4.85A17.4,17.4,0,0,0,35,47.18H0v25.3Z" transform="translate(0 -0.09)"/><path class="cls-3" d="M221.06,56.29l.09.66.14-.59,1-3.49h.56l1,3.49.14.6.1-.67.78-3.42h.67l-1.22,5h-.6l-1-3.64-.08-.39-.08.39-1.07,3.64h-.61l-1.21-5h.66Z" transform="translate(0 -0.09)"/><path class="cls-3" d="M228.18,56.29l.1.66.14-.59,1-3.49H230l1,3.49.14.6.11-.67.78-3.42h.66l-1.22,5h-.6l-1-3.64-.08-.39-.07.39-1.08,3.64h-.6l-1.22-5h.66Z" transform="translate(0 -0.09)"/><path class="cls-3" d="M235.3,56.29l.1.66.14-.59,1-3.49h.56l1,3.49.14.6.11-.67.78-3.42h.67l-1.22,5h-.61l-1-3.64-.08-.39-.08.39-1.08,3.64h-.6l-1.22-5h.67Z" transform="translate(0 -0.09)"/><path class="cls-3" d="M240.83,57.53a.38.38,0,0,1,.1-.27.37.37,0,0,1,.29-.11.41.41,0,0,1,.3.11.38.38,0,0,1,.1.27.36.36,0,0,1-.1.27.41.41,0,0,1-.3.11.37.37,0,0,1-.29-.11A.36.36,0,0,1,240.83,57.53Z" transform="translate(0 -0.09)"/><path class="cls-3" d="M247.32,56.28a1.76,1.76,0,0,1-.59,1.22,1.92,1.92,0,0,1-1.31.44A1.79,1.79,0,0,1,244,57.3a2.53,2.53,0,0,1-.54-1.7v-.48a2.92,2.92,0,0,1,.25-1.22,1.91,1.91,0,0,1,.71-.82,2.08,2.08,0,0,1,1.07-.28,1.8,1.8,0,0,1,1.28.45,1.82,1.82,0,0,1,.56,1.23h-.66a1.47,1.47,0,0,0-.38-.87,1.12,1.12,0,0,0-.8-.27,1.19,1.19,0,0,0-1,.47,2.13,2.13,0,0,0-.36,1.33v.48a2.2,2.2,0,0,0,.34,1.3,1.12,1.12,0,0,0,1,.48,1.32,1.32,0,0,0,.85-.25,1.47,1.47,0,0,0,.39-.87Z" transform="translate(0 -0.09)"/><path class="cls-3" d="M250.92,55.85h-1.18v2h-.67v-5h1.67a2,2,0,0,1,1.3.38,1.54,1.54,0,0,1,.21,1.94,1.5,1.5,0,0,1-.71.51l1.18,2.13v0H252Zm-1.18-.54h1a1.13,1.13,0,0,0,.78-.26.84.84,0,0,0,.3-.68.91.91,0,0,0-.28-.71,1.15,1.15,0,0,0-.8-.25h-1Z" transform="translate(0 -0.09)"/><path class="cls-3" d="M257.12,55.56h-2.18v1.77h2.53v.54h-3.19v-5h3.16v.54h-2.5V55h2.18Z" transform="translate(0 -0.09)"/><path class="cls-3" d="M261.92,56.56h-2.1l-.47,1.31h-.69l1.92-5h.58l1.92,5h-.68ZM260,56h1.71l-.86-2.34Z" transform="translate(0 -0.09)"/><path class="cls-3" d="M267.64,53.41H266v4.46h-.66V53.41h-1.61v-.54h3.89Z" transform="translate(0 -0.09)"/><path class="cls-3" d="M269.94,57.87h-.66v-5h.66Z" transform="translate(0 -0.09)"/><path class="cls-3" d="M273.67,57l1.44-4.12h.72l-1.86,5h-.59l-1.86-5h.72Z" transform="translate(0 -0.09)"/><path class="cls-3" d="M280.19,55.56H278v1.77h2.53v.54h-3.2v-5h3.16v.54H278V55h2.17Z" transform="translate(0 -0.09)"/><path class="cls-3" d="M282.93,57.87h-.66v-5h.66Z" transform="translate(0 -0.09)"/><path class="cls-3" d="M288.37,53.41h-1.62v4.46h-.66V53.41h-1.61v-.54h3.89Z" transform="translate(0 -0.09)"/><path class="cls-3" d="M290.39,56H288.7v-.52h1.69Z" transform="translate(0 -0.09)"/><path class="cls-3" d="M292.67,57.87H292v-5h.66Z" transform="translate(0 -0.09)"/><path class="cls-3" d="M298.6,57.87h-.67L295.4,54v3.85h-.67v-5h.67l2.54,3.87V52.87h.66Z" transform="translate(0 -0.09)"/><path class="cls-3" d="M302.1,55.64a3,3,0,0,1-1.24-.6,1.15,1.15,0,0,1-.39-.88,1.18,1.18,0,0,1,.48-1,1.87,1.87,0,0,1,1.23-.39,2.15,2.15,0,0,1,.93.2,1.45,1.45,0,0,1,.62.55,1.38,1.38,0,0,1,.23.76h-.67a.91.91,0,0,0-.29-.71,1.2,1.2,0,0,0-.82-.26,1.23,1.23,0,0,0-.76.21.72.72,0,0,0-.28.6.66.66,0,0,0,.26.52,2.69,2.69,0,0,0,.89.39,3.93,3.93,0,0,1,1,.38,1.58,1.58,0,0,1,.53.49,1.31,1.31,0,0,1,.17.67,1.16,1.16,0,0,1-.48,1,2.06,2.06,0,0,1-1.27.37,2.4,2.4,0,0,1-1-.2,1.58,1.58,0,0,1-.69-.54,1.34,1.34,0,0,1-.25-.78H301a.83.83,0,0,0,.34.71,1.38,1.38,0,0,0,.9.27,1.25,1.25,0,0,0,.8-.22A.74.74,0,0,0,303,56,2.75,2.75,0,0,0,302.1,55.64Z" transform="translate(0 -0.09)"/><path class="cls-3" d="M309.14,53.41h-1.62v4.46h-.66V53.41h-1.61v-.54h3.89Z" transform="translate(0 -0.09)"/><path class="cls-3" d="M309.9,57.53a.42.42,0,0,1,.09-.27.46.46,0,0,1,.6,0,.38.38,0,0,1,.1.27.36.36,0,0,1-.1.27.46.46,0,0,1-.6,0A.4.4,0,0,1,309.9,57.53Z" transform="translate(0 -0.09)"/><path class="cls-3" d="M316.39,56.28a1.8,1.8,0,0,1-.59,1.22,1.93,1.93,0,0,1-1.32.44,1.8,1.8,0,0,1-1.43-.64,2.58,2.58,0,0,1-.53-1.7v-.48a2.77,2.77,0,0,1,.25-1.22,1.85,1.85,0,0,1,.71-.82,2,2,0,0,1,1.06-.28,1.73,1.73,0,0,1,1.85,1.68h-.67a1.47,1.47,0,0,0-.37-.87,1.13,1.13,0,0,0-.81-.27,1.22,1.22,0,0,0-1,.47,2.13,2.13,0,0,0-.36,1.33v.48a2.2,2.2,0,0,0,.35,1.3,1.09,1.09,0,0,0,1,.48,1.32,1.32,0,0,0,.85-.25,1.36,1.36,0,0,0,.39-.87Z" transform="translate(0 -0.09)"/><path class="cls-3" d="M322,55.53a3,3,0,0,1-.25,1.28,1.89,1.89,0,0,1-.7.84,2,2,0,0,1-1.07.29,2,2,0,0,1-1.05-.29,1.93,1.93,0,0,1-.71-.83,2.88,2.88,0,0,1-.26-1.25v-.36a3,3,0,0,1,.25-1.27,1.93,1.93,0,0,1,.71-.85,2.08,2.08,0,0,1,2.12,0,1.85,1.85,0,0,1,.71.84,3,3,0,0,1,.25,1.28Zm-.66-.32a2.24,2.24,0,0,0-.36-1.37,1.29,1.29,0,0,0-2,0,2.22,2.22,0,0,0-.38,1.32v.37a2.23,2.23,0,0,0,.37,1.35,1.18,1.18,0,0,0,1,.5,1.19,1.19,0,0,0,1-.47,2.26,2.26,0,0,0,.36-1.33Z" transform="translate(0 -0.09)"/><path class="cls-3" d="M324.71,52.87,326.35,57,328,52.87h.86v5h-.67V55.92l.07-2.1-1.65,4h-.51l-1.65-4,.07,2.09v1.95h-.67v-5Z" transform="translate(0 -0.09)"/></svg>